<?xml version="1.0" encoding="UTF-8" standalone="no"?>
<!-- Created with Inkscape (http://www.inkscape.org/) -->

<svg
   xmlns:dc="http://purl.org/dc/elements/1.1/"
   xmlns:cc="http://creativecommons.org/ns#"
   xmlns:rdf="http://www.w3.org/1999/02/22-rdf-syntax-ns#"
   xmlns:svg="http://www.w3.org/2000/svg"
   xmlns="http://www.w3.org/2000/svg"
   xmlns:xlink="http://www.w3.org/1999/xlink"
   xmlns:sodipodi="http://sodipodi.sourceforge.net/DTD/sodipodi-0.dtd"
   xmlns:inkscape="http://www.inkscape.org/namespaces/inkscape"
   width="210mm"
   height="297mm"
   viewBox="0 0 210 297"
   version="1.1"
   id="map"
   sodipodi:docname="map.svg"
   inkscape:version="0.92.3 (2405546, 2018-03-11)">
  <defs
     id="defs79" />
  <sodipodi:namedview
     id="base"
     pagecolor="#ffffff"
     bordercolor="#666666"
     borderopacity="1.0"
     inkscape:pageopacity="0.0"
     inkscape:pageshadow="2"
     inkscape:zoom="0.35"
     inkscape:cx="184.54443"
     inkscape:cy="515.55365"
     inkscape:document-units="mm"
     inkscape:current-layer="layer1"
     showgrid="false"
     inkscape:window-width="1366"
     inkscape:window-height="705"
     inkscape:window-x="-8"
     inkscape:window-y="306"
     inkscape:window-maximized="1" />
  <metadata
     id="metadata82">
    <rdf:RDF>
      <cc:Work
         rdf:about="">
        <dc:format>image/svg+xml</dc:format>
        <dc:type
           rdf:resource="http://purl.org/dc/dcmitype/StillImage" />
      </cc:Work>
    </rdf:RDF>
  </metadata>
  <a
    id="areaCoruna"
    class="area"
    transform="translate(-66.423612,-355.80383)"
    xlink:href="https://dacoruna.gal"
    target="_blank">
    <path
        inkscape:connector-curvature="0"
        id="areaCorunaPath"
        d="m 109.44188,473.62195 c 0.13456,-0.70403 -0.13923,-1.25678 -1.09186,-2.2042 l -1.27148,-1.26449 0.88262,-1.8401 c 0.48546,-1.01208 1.06082,-2.85157 1.27857,-4.08776 0.4616,-2.62054 2.17406,-5.43023 3.41818,-5.60829 0.53139,-0.076 1.16639,-0.72157 1.74689,-1.77589 0.50162,-0.91101 1.18454,-1.73307 1.5176,-1.82679 0.76861,-0.21629 2.30642,-2.57365 2.30642,-3.53557 0,-1.18525 -2.1808,-1.0079 -2.64583,0.21521 -0.19759,0.51972 -0.64773,0.94494 -1.00031,0.94494 -0.35259,0 -0.90959,0.23227 -1.23778,0.5162 -1.03513,0.89543 -2.59021,1.08116 -2.99505,0.35771 -0.32293,-0.577 -0.51777,-0.59012 -1.9153,-0.12887 -1.71804,0.567 -2.50086,1.27156 -2.11198,1.90079 0.35886,0.5806 -0.51146,1.50947 -1.17554,1.25465 -0.3043,-0.11678 -0.80968,-0.7081 -1.12303,-1.31405 -0.52691,-1.01896 -0.51167,-1.17552 0.20297,-2.08404 1.12564,-1.43103 0.99668,-2.7807 -0.37336,-3.90713 l -1.15287,-0.94787 0.60214,-1.69797 c 0.56036,-1.58019 0.55719,-1.72415 -0.0458,-2.07592 -0.80708,-0.47082 -1.64676,-1.33791 -2.5273,-2.60982 -0.833572,-1.20409 -1.777732,-1.28344 -1.777732,-0.14941 0,0.64677 -0.10081,0.73075 -0.45358,0.37798 -0.69829,-0.69828 -1.53852,-0.53197 -2.51542,0.4979 -0.73853,0.77861 -1.57207,1.22811 -1.56496,0.84391 0,-0.052 0.42215,-1.11501 0.93597,-2.36233 1.13609,-2.75796 1.16321,-3.36664 0.20971,-4.70575 l -0.74245,-1.04264 0.93144,-1.26249 c 0.51228,-0.69437 0.93144,-1.54231 0.93144,-1.88433 0,-0.74978 1.53826,-1.52033 2.52164,-1.26315 0.44545,0.11647 1.055052,-0.18455 1.644432,-0.81201 0.73232,-0.77964 0.9284,-1.37406 0.89898,-2.72536 -0.0246,-1.12533 -0.25202,-1.88505 -0.6522,-2.17766 -0.53343,-0.39005 -0.54483,-0.54464 -0.0865,-1.17046 0.45734,-0.62436 0.93835,-0.70636 3.58709,-0.61158 3.04186,0.10887 3.06576,0.10231 4.28181,-1.17248 0.92159,-0.9661 1.76429,-1.39684 3.42058,-1.74842 1.23317,-0.26175 2.29114,-0.70993 2.4106,-1.02121 0.31025,-0.80846 -1.02669,-3.53687 -1.73641,-3.54367 -0.4844,-0.005 -0.50218,-0.0703 -0.0898,-0.33166 0.28289,-0.17923 0.83537,-0.24191 1.22777,-0.13927 0.95039,0.24852 2.60467,-0.87212 2.60467,-1.76448 0,-0.51708 0.19952,-0.65966 0.7293,-0.52113 0.4011,0.10488 1.231,-0.10564 1.8442,-0.46789 1.10413,-0.65222 1.12905,-0.64722 2.57799,0.51568 0.81568,0.65466 2.32915,1.37374 3.42029,1.62507 1.79695,0.41389 2.1888,0.36862 4.7842,-0.55277 1.96196,-0.69651 3.58497,-1.00359 5.30431,-1.00359 2.39364,0 2.53529,-0.0543 4.19167,-1.60642 0.94289,-0.88349 2.25133,-2.02374 2.90766,-2.53389 l 1.1933,-0.92747 1.21018,1.39997 c 0.89791,1.03872 1.50484,1.39993 2.35225,1.39993 1.46211,0 2.03628,-0.71546 2.27518,-2.83501 0.10543,-0.93538 0.24608,-1.70069 0.31257,-1.70069 0.49967,0 3.56058,2.42637 3.56058,2.82245 0,0.54221 2.44785,2.84721 3.02366,2.84721 0.7571,0 1.06429,-1.36311 0.72112,-3.19996 -0.43299,-2.31764 -0.25768,-2.87176 1.16374,-3.67813 0.75875,-0.43045 1.0562,-0.83563 0.90422,-1.23169 -0.26342,-0.68648 -1.1012,-0.93249 -3.7842,-1.11119 -2.33014,-0.15521 -3.27936,-0.5978 -2.19245,-1.02225 0.40198,-0.15697 1.24201,-0.20156 1.86674,-0.0991 1.60359,0.26305 3.57111,-1.14856 4.66059,-3.34373 0.96514,-1.94469 0.85206,-2.56696 -0.46644,-2.56696 -0.55396,0 -1.01669,0.33962 -1.29503,0.95049 -0.55372,1.21528 -2.16773,2.0129 -2.79791,1.38271 -0.7443,-0.7443 -1.80065,-0.50144 -2.18202,0.50163 -0.26879,0.70694 -0.63426,0.94493 -1.45116,0.94493 -1.01743,0 -1.08897,-0.0967 -1.04878,-1.4174 0.0264,-0.87021 0.29847,-1.60811 0.70455,-1.91132 0.36381,-0.27165 0.66146,-0.88824 0.66146,-1.37017 0,-0.67512 0.26557,-0.92938 1.15689,-1.10763 0.67702,-0.13541 2.06309,-1.09575 3.34148,-2.3151 1.2015,-1.14607 2.37588,-2.08373 2.60972,-2.08373 0.23381,0 0.98385,-0.48533 1.66671,-1.07849 1.69389,-1.47143 2.68378,-1.94533 4.06339,-1.94533 1.26691,0 1.92429,-0.88572 1.19711,-1.6129 -0.60066,-0.60065 -0.53361,-2.36474 0.11015,-2.89904 0.32546,-0.27008 1.04306,-0.35208 1.81472,-0.2073 1.09114,0.20471 1.57533,0.0193 3.33595,-1.2778 1.13273,-0.8345 2.4057,-1.86762 2.82879,-2.29582 0.42307,-0.4282 0.99518,-0.77856 1.27132,-0.77856 0.69326,0 0.22056,3.02225 -0.81838,5.23253 -0.76515,1.62777 -0.7674,1.68815 -0.0818,2.18945 0.86698,0.63395 1.73511,0.653 3.0227,0.0663 0.7737,-0.35251 0.93864,-0.6372 0.76653,-1.32292 -0.18569,-0.7398 -0.0734,-0.87374 0.73284,-0.87374 0.6735,0 0.95215,-0.20409 0.95215,-0.69738 0,-0.38354 0.29766,-0.95946 0.66146,-1.27982 0.90691,-0.79859 4.66103,-2.65369 4.89559,-2.41914 0.29678,0.29681 -0.2952,3.99217 -0.67739,4.22839 -0.18764,0.11596 -0.0759,0.72382 0.24831,1.3508 0.56375,1.09016 0.54584,1.19716 -0.41005,2.45041 -0.83193,1.09072 -0.95853,1.55308 -0.75507,2.75741 0.1782,1.05471 0.10346,1.50104 -0.27567,1.64653 -0.70347,0.26993 -1.49743,3.04826 -1.20456,4.21516 0.31649,1.26095 -1.1965,5.81548 -2.34032,7.04511 -0.49403,0.5311 -0.89826,1.23314 -0.89826,1.56012 0,0.96107 -0.899,1.43359 -2.29614,1.20687 -1.01285,-0.16436 -1.46132,-0.037 -2.01184,0.57128 -0.63362,0.70017 -0.6592,0.95859 -0.24227,2.44774 0.53665,1.91672 0.37954,2.34704 -1.91818,5.25389 -1.40496,1.77739 -1.55406,2.66599 -0.51427,3.06501 0.41222,0.15817 0.28625,0.835 -0.61505,3.30465 -1.23796,3.39209 -1.22336,3.74718 0.37383,9.07632 0.54708,1.82538 0.56375,2.23819 0.11742,2.91041 -0.45368,0.68324 -0.3951,1.2082 0.45847,4.10951 1.23127,4.18513 1.25143,5.77432 0.0909,7.17145 -0.48811,0.58764 -0.99804,1.49365 -1.13324,2.01338 -0.30633,1.17776 -2.90137,3.94718 -4.44815,4.74707 -1.01142,0.52303 -1.23946,0.53009 -1.78652,0.0554 -0.40399,-0.35054 -1.93243,-0.62529 -4.29659,-0.77226 -3.51444,-0.21849 -3.71645,-0.18865 -4.77928,0.70564 -0.61036,0.51358 -1.51892,0.9338 -2.01901,0.9338 -0.50011,0 -1.08339,0.17409 -1.29619,0.3869 -0.2639,0.26389 -0.60698,0.14372 -1.0791,-0.37799 -1.38137,-1.52638 -4.32668,-0.50519 -3.29724,1.14319 0.31509,0.50456 0.33404,1.00494 0.0648,1.71296 -0.31266,0.82233 -0.55978,0.96586 -1.3897,0.80722 -0.8247,-0.15766 -1.31146,0.11777 -2.65962,1.50495 -1.4103,1.45108 -1.79829,1.65992 -2.66893,1.43653 -0.56033,-0.14378 -2.03663,-0.40772 -3.28067,-0.58656 -1.83203,-0.26339 -2.32045,-0.2205 -2.57011,0.22559 -0.16952,0.30292 -0.62762,0.55078 -1.01796,0.55078 -0.39037,0 -1.06024,0.44559 -1.48863,0.99018 -0.58017,0.73758 -0.99702,0.93165 -1.63382,0.7607 -0.50433,-0.13539 -1.47503,0.0705 -2.36686,0.50189 -0.83156,0.40227 -1.80861,0.81965 -2.17125,0.92752 -0.36264,0.10787 -1.11501,1.1252 -1.67193,2.26073 -0.55692,1.13552 -1.28074,2.14247 -1.60851,2.23764 -0.32776,0.0952 -0.89357,0.29559 -1.25738,0.44537 -0.50376,0.20738 -0.66145,0.0871 -0.66145,-0.50461 0,-0.90916 -1.5453,-2.70574 -2.32731,-2.70574 -0.3203,0 -0.72469,0.69152 -0.99464,1.7009 -0.40752,1.52363 -0.56994,1.70088 -1.55853,1.70088 -0.83101,0 -1.3916,0.36359 -2.26933,1.4718 -0.64112,0.80949 -1.16568,1.74662 -1.16568,2.08248 0,0.33586 -0.67389,1.07677 -1.49757,1.6465 -1.06912,0.73948 -1.50167,1.31157 -1.5119,1.99967 -0.0135,0.90778 -0.61659,1.87097 -1.17145,1.87097 -0.13747,0 -0.16915,-0.42285 -0.0703,-0.93966 z"
        style="fill:#0000ff;stroke-width:0.37797621" />
  </a>
  <a
    id="areaLugo"
    class="area"
    xlink:href="http://deputacionlugo.gal"
    target="_blank">
    <path
        style="fill:#0000ff;stroke-width:0.75595242"
        d="m 147.98792,130.37696 c -0.0774,-1.92138 -3.98227,-4.36023 -7.93324,-4.95483 -2.25626,-0.33956 -3.69041,-0.0365 -6.04763,1.27792 -4.74549,2.64617 -10.25433,1.69857 -14.67226,-2.52389 -0.54941,-0.52512 -1.3349,-0.95475 -1.74551,-0.95475 -0.41061,0 -0.56015,-0.30165 -0.33232,-0.6703 0.61989,-1.00298 -1.4737,-2.44546 -2.8068,-1.93389 -1.48149,0.56849 -6.03687,-1.74715 -5.41537,-2.7528 0.25729,-0.41627 0.0652,-1.24196 -0.42685,-1.83484 -0.85399,-1.02899 -0.42574,-3.57518 1.91805,-11.40415 0.38417,-1.28325 -0.0406,-1.83176 -2.21891,-2.86546 -1.48172,-0.7031 -3.01571,-1.879495 -3.40888,-2.614165 -0.8527,-1.59327 -0.53856,-7.29041 0.47543,-8.62232 0.3944,-0.51808 1.33063,-2.27928 2.08047,-3.9138 1.27553,-2.78045 1.2854,-3.21548 0.15331,-6.75553 -0.73964,-2.31301 -0.94423,-4.10389 -0.52635,-4.60745 0.41794,-0.50355 0.21973,-2.23287 -0.51002,-4.44944 -1.0199,-3.09809 -1.05348,-4.20995 -0.2306,-7.64006 0.52967,-2.20787 0.7562,-4.34896 0.50342,-4.75795 -0.25278,-0.40902 0.21273,-1.3521 1.03446,-2.09579 0.92089,-0.83338 1.49409,-2.32222 1.49409,-3.88078 0,-2.145047 0.26757,-2.528669 1.76373,-2.528669 1.39626,0 2.26251,-0.96711 4.15775,-4.641899 1.3167,-2.55305 2.394,-5.78475 2.394,-7.18154 0,-1.39681 0.34017,-2.53965 0.75593,-2.53965 0.41579,0 0.75598,-1.17055 0.75598,-2.60123 0,-1.43065 0.30651,-2.79066 0.68116,-3.0222 0.37465,-0.23154 0.64738,-1.61293 0.60611,-3.06975 -0.0893,-3.15013 1.39735,-5.15945 2.51237,-3.39574 0.39212,0.62018 0.71812,1.85661 0.72449,2.74762 0.0196,2.74478 2.03875,2.69256 3.68361,-0.0953 1.14935,-1.94802 1.87265,-2.45094 3.07327,-2.13699 0.8636,0.22585 1.57017,0.6649 1.57017,0.97571 0,0.31078 1.44576,1.1321 3.21281,1.82512 2.30158,0.90265 3.81921,2.21819 5.35091,4.63841 1.17594,1.85809 2.4516,3.37839 2.8348,3.37839 0.38319,0 0.69672,0.65971 0.69672,1.46603 0,1.21091 0.49332,1.44568 2.83483,1.34908 1.55913,-0.0643 4.49318,-0.0437 6.52007,0.0458 3.67734,0.16248 3.6843,0.16777 3.2258,2.46026 -0.69284,3.46416 -2.83144,5.96696 -5.12204,5.99429 -2.66721,0.0318 -3.61447,3.63768 -1.37094,5.218638 0.80949,0.57044 1.4718,1.61671 1.4718,2.32508 0,0.70834 0.85045,2.08688 1.88989,3.06337 1.03944,0.9765 1.88987,2.54929 1.88987,3.4951 0,1.07693 0.98888,2.47388 2.64583,3.73771 1.64735,1.25648 2.64583,2.66248 2.64583,3.72565 0,3.43403 3.60707,4.22529 6.42329,1.40907 1.01682,-1.0168 1.19132,-1.00838 1.60809,0.0777 0.60738,1.58284 -1.51043,3.88951 -4.10126,4.46691 -1.20446,0.26844 -2.70618,1.51775 -3.66593,3.04974 -1.46992,2.34638 -1.51807,2.74865 -0.50268,4.19833 0.6759,0.96499 1.62507,1.44391 2.38416,1.20301 0.69366,-0.22016 2.36746,0.27247 3.71956,1.09471 2.06304,1.25463 2.42732,1.89151 2.26531,3.96052 -0.10615,1.35602 -0.66132,2.83261 -1.23367,3.28129 -0.83553,0.655 -0.86101,1.15149 -0.1292,2.51891 0.78381,1.46455 0.62884,2.11095 -1.10643,4.61494 -1.12395,1.62187 -2.44933,2.746305 -2.99175,2.538185 -0.5356,-0.205565 -2.27084,0.81452 -3.85609,2.26679 -2.53352,2.321 -2.78527,2.85342 -2.08052,4.40012 0.61661,1.35332 0.54877,1.99592 -0.29374,2.78294 -0.69379,0.64808 -0.92284,1.71128 -0.62463,2.89936 0.25897,1.03182 0.16036,2.26872 -0.21908,2.74868 -0.37946,0.47993 -0.91104,2.10158 -1.18128,3.60365 -0.27022,1.50209 -1.20608,3.37307 -2.07965,4.15774 -0.87358,0.7847 -2.36985,3.12761 -3.32508,5.20647 -1.09826,2.39025 -1.7595,3.2144 -1.79866,2.24187 z"
        id="areaLugoPath"
        inkscape:connector-curvature="0" />
  </a>
  <a
    id="areaOurense"
    class="area"
    transform="translate(-67.091786,-355.93747)"
    xlink:href="http://www.depourense.es"
    target="_blank">
    <path
        inkscape:connector-curvature="0"
        id="areaOurensePath"
        d="m 160.47729,529.00226 c -0.15592,-0.1583 -0.2835,-0.95102 -0.2835,-1.7616 0,-1.70534 -0.55107,-2.93595 -1.31477,-2.93595 -0.94001,0 -1.69886,-1.48944 -1.29717,-2.546 0.7338,-1.92998 3.89261,-5.62428 5.43483,-6.35612 1.67199,-0.7934 2.21703,-2.07666 1.69905,-4.00028 -0.63857,-2.37141 -1.61433,-3.10891 -3.77481,-2.85303 -1.62718,0.19272 -1.82639,0.13234 -2.02663,-0.61439 -0.47527,-1.77226 -0.22532,-4.15211 0.57148,-5.44137 0.59624,-0.9647 0.69387,-1.4107 0.37798,-1.72659 -0.54692,-0.54692 -0.54377,-1.60814 0.007,-2.49066 0.24088,-0.3857 0.3216,-1.13871 0.18177,-1.69576 -0.20323,-0.80973 -0.47244,-1.00198 -1.40306,-1.00198 -0.63336,0 -1.49662,0.18465 -1.91834,0.41034 -0.62587,0.33496 -0.94112,0.24816 -1.71566,-0.47246 -0.86278,-0.80272 -0.9289,-1.078 -0.72848,-3.03332 0.19492,-1.90161 0.13581,-2.17736 -0.51075,-2.38255 -1.3412,-0.42568 -2.65425,-2.39744 -2.65425,-3.98579 0,-0.80756 -0.34017,-2.92719 -0.75594,-4.71035 -0.94927,-4.07114 -0.95625,-3.96875 0.27049,-3.96875 0.7094,0 1.56223,-0.52768 2.7609,-1.70836 0.95393,-0.93959 2.13669,-1.7858 2.62834,-1.8805 0.49165,-0.0947 1.36922,-0.62751 1.95017,-1.18409 0.92344,-0.88471 1.13572,-0.94596 1.68865,-0.48707 0.43124,0.3579 1.38004,0.48641 2.98264,0.40399 1.29263,-0.0665 3.0783,0.0973 3.9682,0.36391 1.5522,0.46506 1.65044,0.44538 2.41718,-0.48397 1.15702,-1.40243 3.50284,-1.7045 4.67627,-0.60214 l 0.8795,0.82626 -0.86638,0.65652 c -0.83735,0.63452 -0.84502,0.69199 -0.2291,1.71452 0.47239,0.78425 1.0522,1.12924 2.24076,1.33329 0.88191,0.15142 1.77726,0.44908 1.98964,0.66146 0.21241,0.21241 0.6745,0.38618 1.02687,0.38618 0.35237,0 1.04124,0.43276 1.5308,0.96166 1.13755,1.22896 2.68473,2.06216 3.82929,2.06216 0.49379,0 1.31016,0.44178 1.81414,0.98174 0.50398,0.53993 1.53562,1.29931 2.29248,1.68751 0.7569,0.3882 1.72292,1.17957 2.14675,1.75861 l 0.77063,1.0528 1.34887,-0.72062 c 1.25815,-0.67217 1.39539,-0.67852 2.04073,-0.0945 1.08858,0.98515 2.5639,0.74917 6.07026,-0.97089 2.72187,-1.33522 3.65829,-1.60657 5.71241,-1.65539 1.87359,-0.0445 2.75828,0.12367 3.72665,0.7085 2.01959,1.21968 3.07689,2.37051 3.07689,3.3491 0,1.35366 1.30093,3.54155 2.10582,3.54155 0.47456,0 0.89527,-0.53636 1.33409,-1.7009 1.63292,-4.33334 3.02654,-7.07033 4.04161,-7.9375 0.60836,-0.51972 1.56451,-1.67928 2.12476,-2.5768 0.88162,-1.4123 1.15576,-1.60475 2.03732,-1.43034 3.88673,0.76896 3.94843,0.7651 4.79737,-0.29961 l 0.80889,-1.01442 2.31518,1.14867 c 1.27336,0.63179 2.56596,1.14868 2.87245,1.14868 1.52072,0 1.77541,0.40265 1.52159,2.4056 -0.1353,1.06762 -0.52128,2.42212 -0.85775,3.00998 -0.59407,1.03796 -0.58118,1.09519 0.44564,1.98167 0.58155,0.50207 1.50601,1.02545 2.05433,1.16306 0.54832,0.13763 1.47667,0.74096 2.06298,1.34075 0.9416,0.96321 1.03759,1.27627 0.82241,2.68179 -0.29697,1.93992 -1.02989,3.4604 -2.45872,5.10071 -0.59484,0.68287 -1.08151,1.40573 -1.08151,1.60639 0,0.20066 -0.77314,0.36481 -1.71808,0.36481 -1.36601,0 -1.90132,0.2005 -2.61233,0.97846 -1.43698,1.57223 -1.47812,1.6121 -2.59731,2.51642 -0.61944,0.50052 -1.18197,1.41767 -1.33755,2.18075 -0.18394,0.90226 -0.64611,1.55498 -1.46772,2.07291 -0.65956,0.41576 -1.20576,1.02981 -1.21378,1.36453 -0.008,0.33473 -0.6114,1.24143 -1.34091,2.01491 -0.72948,0.77348 -1.21388,1.6052 -1.07643,1.84827 0.61849,1.09371 1.43251,1.74072 2.47928,1.97062 1.25346,0.2753 1.25868,0.38484 0.19532,4.11522 -0.80227,2.81443 -2.36154,3.20321 -4.77153,1.18973 -1.97477,-1.64989 -3.45358,-1.98898 -5.15434,-1.18192 -1.46392,0.69469 -1.64063,1.17795 -1.77808,4.86264 -0.10949,2.93487 0.0657,2.75791 -4.75594,4.80494 -2.35445,0.99957 -2.94116,1.11628 -3.91155,0.77798 -1.29471,-0.45132 -2.21745,-0.11022 -3.09631,1.14454 -0.67636,0.96559 -1.27236,0.66609 -1.96276,-0.98629 -0.42005,-1.00531 -0.83124,-1.30815 -2.26706,-1.66968 -1.9277,-0.4854 -2.81233,-0.13642 -2.81233,1.10945 0,0.75552 -1.73144,1.5026 -3.4824,1.5026 h -1.10169 l 0.8619,-1.53355 c 1.02291,-1.81999 0.69255,-2.23113 -1.80022,-2.24042 -1.04029,-0.004 -2.02928,-0.32856 -2.99307,-0.98261 -1.04029,-0.70596 -1.70998,-0.90992 -2.41509,-0.73564 -0.53663,0.13266 -1.65606,0.37078 -2.48759,0.52919 -0.83156,0.15841 -1.88344,0.48943 -2.33751,0.73565 -0.45408,0.24619 -1.25511,0.44762 -1.7801,0.44762 -0.55475,0 -1.35662,0.43368 -1.91471,1.03558 l -0.96025,1.03558 v -2.53418 c 0,-2.08468 -0.12483,-2.60099 -0.70374,-2.91082 -1.00224,-0.53639 -1.80054,0.20588 -2.3074,2.14543 -0.34655,1.32617 -0.57777,1.60639 -1.32554,1.60639 -1.5154,0 -2.83919,0.69178 -3.21492,1.68011 -0.58783,1.54606 -3.2597,2.98317 -5.86656,3.15542 -1.24732,0.0824 -2.3954,0.0204 -2.55132,-0.13798 z"
        style="fill:#0000ff;stroke-width:0.37797621" />
  </a>
  <a
    id="areaPontevedra"
    class="area"
    transform="translate(-66.423612,-355.80383)"
    xlink:href="http://depo.gal"
    target="_blank">
    <path
        inkscape:connector-curvature="0"
        id="areaPontevedraPath"
        d="m 118.84968,523.38316 c -0.13133,-0.41154 -0.35483,-4.1592 -0.49667,-8.32813 -0.26792,-7.87551 -0.0685,-8.65841 2.00292,-7.86353 0.95996,0.36838 1.91188,-1.35265 1.91188,-3.45657 0,-1.78945 2.0097,-4.50233 4.20635,-5.67819 0.77348,-0.41402 2.32174,-1.60809 3.44058,-2.65348 1.11885,-1.0454 2.50198,-1.90072 3.07362,-1.90072 0.90204,0 1.03931,-0.38412 1.03931,-2.90843 0,-4.40417 -1.64375,-4.65087 -3.63805,-0.54602 -0.9444,1.94387 -1.42446,2.38538 -2.59374,2.38538 -0.78917,0 -1.81459,0.34205 -2.27875,0.76015 -0.46413,0.41809 -1.45283,0.91207 -2.1971,1.09773 -1.29834,0.32385 -1.34503,0.25199 -1.15197,-1.77258 0.17439,-1.82869 0.40529,-2.15093 1.73109,-2.4161 0.97774,-0.19555 1.8265,-0.8796 2.3518,-1.89542 0.45207,-0.87418 1.90567,-2.60519 3.23025,-3.8467 1.32458,-1.2415 2.40832,-2.43189 2.40832,-2.64535 0,-0.21344 -0.84331,-0.54629 -1.87402,-0.73965 -1.53604,-0.28815 -2.21533,-0.0913 -3.76642,1.09183 -2.2896,1.74636 -5.9299,2.0192 -6.77572,0.50782 -0.58981,-1.05394 -0.11732,-1.70207 1.45812,-2.00004 0.74869,-0.1416 1.05037,-0.59767 1.00663,-1.52186 -0.0343,-0.72583 0.19926,-1.48701 0.51909,-1.69153 0.41854,-0.26765 0.41598,-0.99206 -0.009,-2.5849 -0.7379,-2.76445 -0.44561,-3.93684 1.20115,-4.81814 0.71692,-0.3837 1.29874,-1.18592 1.308,-1.80348 0.009,-0.61182 0.60931,-2.07457 1.3336,-3.25057 0.72433,-1.17596 1.31816,-2.55587 1.31967,-3.06641 0.003,-1.15014 3.22394,-2.58228 4.8505,-2.15694 0.84097,0.21992 1.44703,-0.0565 2.14106,-0.97671 0.88625,-1.17498 1.35765,-1.28648 5.57765,-1.3191 4.3021,-0.0332 4.68744,-0.12923 5.77689,-1.43915 0.64204,-0.77198 1.76869,-1.47757 2.50367,-1.568 0.95642,-0.11771 1.48945,-0.63815 1.87492,-1.8306 0.51083,-1.58033 0.59997,-1.62536 1.73066,-0.87461 1.05815,0.7026 1.22759,0.69914 1.50765,-0.0307 0.22926,-0.59743 0.79452,-0.74454 2.06738,-0.53798 1.43272,0.23249 1.8025,0.0906 2.02991,-0.77901 0.24291,-0.92895 0.67715,-1.04773 3.43617,-0.93993 1.73696,0.0679 3.64408,0.38348 4.23804,0.70135 0.67337,0.36039 1.37094,0.39386 1.85293,0.0889 0.42516,-0.26897 1.32271,-0.49273 1.99454,-0.49723 1.0746,-0.007 1.1495,0.12637 0.62272,1.11067 -1.24132,2.31944 0.94459,6.18662 4.3701,7.73131 2.00927,0.90607 2.05488,0.98377 1.27558,2.17316 -0.4445,0.67839 -0.8082,1.97127 -0.8082,2.87305 0,1.88524 -1.33874,5.38216 -2.29251,5.98829 -0.3561,0.2263 -1.31648,0.41513 -2.13421,0.41963 -0.81772,0.004 -1.61922,0.35335 -1.78109,0.77523 -0.23358,0.60865 -1.08545,0.70403 -4.12591,0.46196 -2.10736,-0.16777 -4.1274,-0.5384 -4.489,-0.82357 -0.4557,-0.35941 -1.16544,-0.0911 -2.31281,0.87437 -0.91045,0.76608 -1.9527,1.3929 -2.31613,1.3929 -0.36346,0 -1.33075,0.69927 -2.14958,1.55395 -0.81886,0.85468 -2.29868,1.7059 -3.28851,1.89159 -2.33182,0.43746 -2.60421,0.96882 -1.54583,3.01551 0.47826,0.92487 1.00293,3.44498 1.16594,5.60022 0.25813,3.41318 0.49353,4.10755 1.82497,5.38313 1.05388,1.00968 1.52857,1.99202 1.52857,3.16326 0,0.93434 0.51464,2.35307 1.14366,3.15272 0.98833,1.25648 1.40579,1.40877 3.07362,1.12135 1.1993,-0.20669 1.66227,-0.15229 1.22287,0.1437 -0.48024,0.32351 -0.59737,1.06082 -0.36517,2.29851 0.28416,1.51469 0.11062,2.03947 -1.0281,3.10926 -0.75348,0.70784 -1.5186,1.13834 -1.70029,0.95668 -0.18166,-0.18167 -1.66788,0.6578 -3.30269,1.86552 -2.91644,2.1545 -3.0716,2.20062 -8.24439,2.4497 -4.43968,0.21378 -5.35617,0.41121 -5.80535,1.2505 -0.3918,0.73207 -1.13541,0.99666 -2.80109,0.99666 -2.6579,0 -4.38666,1.04124 -4.86,2.92716 -0.19447,0.77481 -1.25264,1.92561 -2.48727,2.705 -1.18184,0.74607 -2.36926,1.93635 -2.63874,2.64506 -0.26945,0.70871 -1.16213,1.70638 -1.98374,2.21702 -0.82161,0.51065 -2.0288,1.40116 -2.68261,1.97893 -0.94242,0.83278 -1.23825,0.8954 -1.42756,0.30221 z"
        style="fill:#0000ff;stroke-width:0.53453904" />
  </a>
</svg>
